<?xml version="1.0" encoding="UTF-8" standalone="no"?>
<!-- Created with Inkscape (http://www.inkscape.org/) -->

<svg
   xmlns:dc="http://purl.org/dc/elements/1.1/"
   xmlns:cc="http://creativecommons.org/ns#"
   xmlns:rdf="http://www.w3.org/1999/02/22-rdf-syntax-ns#"
   xmlns:svg="http://www.w3.org/2000/svg"
   xmlns="http://www.w3.org/2000/svg"
   version="1.1"
   width="102"
   height="78.116493"
   id="svg3100">
  <defs
     id="defs3102" />
  <metadata
     id="metadata3105">
    <rdf:RDF>
      <cc:Work
         rdf:about="">
        <dc:format>image/svg+xml</dc:format>
        <dc:type
           rdf:resource="http://purl.org/dc/dcmitype/StillImage" />
        <dc:title></dc:title>
      </cc:Work>
    </rdf:RDF>
  </metadata>
  <g
     transform="translate(-208.15627,-581.48011)"
     id="layer1">
    <path
       d="m 309.15625,582.48011 -0.17901,0.0471 c 0,0 -8.76021,4.29035 -15.6303,9.40267 -3.03002,2.25477 -15.52935,11.33417 -24.13793,17.58998 l -4.28679,-1.57339 -4.77671,3.51422 0.49934,4.28679 c -6e-4,3e-4 -0.0942,0.066 -0.0942,0.066 l 0.3486,0.4805 -51.74298,28.49067 10.26003,3.09968 -0.18843,10.71227 42.95271,-40.53137 0.34859,0.48049 c 0,0 0.10294,-0.0749 0.10364,-0.0754 l 3.91935,1.77125 4.80498,-3.46712 -0.17901,-4.5506 c 8.5932,-6.28038 21.05602,-15.38749 24.12851,-17.58055 6.97011,-4.97509 13.72715,-12.00301 13.72715,-12.00301 l 0.12248,-0.16017 z"
       id="path3404-64"
       style="fill:#a33f1f;fill-opacity:1;stroke:none" />
  </g>
</svg>
