<?xml version="1.0" encoding="UTF-8" standalone="no"?>
<!-- Created with Inkscape (http://www.inkscape.org/) -->

<svg
   xmlns:dc="http://purl.org/dc/elements/1.1/"
   xmlns:cc="http://creativecommons.org/ns#"
   xmlns:rdf="http://www.w3.org/1999/02/22-rdf-syntax-ns#"
   xmlns:svg="http://www.w3.org/2000/svg"
   xmlns="http://www.w3.org/2000/svg"
   version="1.1"
   width="11.26608"
   height="52"
   id="svg3032">
  <defs
     id="defs3034" />
  <metadata
     id="metadata3037">
    <rdf:RDF>
      <cc:Work
         rdf:about="">
        <dc:format>image/svg+xml</dc:format>
        <dc:type
           rdf:resource="http://purl.org/dc/dcmitype/StillImage" />
        <dc:title></dc:title>
      </cc:Work>
    </rdf:RDF>
  </metadata>
  <g
     transform="translate(-312.28794,-441.92467)"
     id="layer1">
    <path
       d="m 319.35605,492.92467 c 0,0 0,-0.10326 0,-0.10393 l 3.17397,-1.80685 0.024,-5.02878 -3.20594,-2.14263 c -0.0118,-9.03 -0.0238,-22.13935 0.008,-25.34378 0.0721,-7.26645 -1.37512,-15.41413 -1.37512,-15.41413 l -0.048,-0.1599 4e-5,0 -0.056,0.14391 c 0,0 -1.43918,8.15568 -1.36712,15.42213 0.0318,3.20394 0.0127,16.3043 0,25.33578 l -3.22194,2.15862 0.024,5.02878 3.18996,1.81484 c 0,5.1e-4 0,0.0879 0,0.0879 z"
       id="path3404"
       style="fill:#a33f1f;fill-opacity:1;stroke:none" />
  </g>
</svg>
